<?xml version="1.0" encoding="UTF-8" standalone="no"?>
<!-- Created with Inkscape (http://www.inkscape.org/) -->

<svg
   width="210mm"
   height="297mm"
   viewBox="0 0 210 297"
   version="1.1"
   id="svg1"
   inkscape:version="1.3 (0e150ed, 2023-07-21)"
   sodipodi:docname="logo.svg"
   xmlns:inkscape="http://www.inkscape.org/namespaces/inkscape"
   xmlns:sodipodi="http://sodipodi.sourceforge.net/DTD/sodipodi-0.dtd"
   xmlns="http://www.w3.org/2000/svg"
   xmlns:svg="http://www.w3.org/2000/svg">
  <sodipodi:namedview
     id="namedview1"
     pagecolor="#ffffff"
     bordercolor="#000000"
     borderopacity="0.25"
     inkscape:showpageshadow="2"
     inkscape:pageopacity="0.0"
     inkscape:pagecheckerboard="0"
     inkscape:deskcolor="#d1d1d1"
     inkscape:document-units="mm"
     inkscape:zoom="1.0226728"
     inkscape:cx="379.39799"
     inkscape:cy="533.89511"
     inkscape:window-width="1392"
     inkscape:window-height="1099"
     inkscape:window-x="133"
     inkscape:window-y="25"
     inkscape:window-maximized="0"
     inkscape:current-layer="layer1" />
  <defs
     id="defs1">
    <inkscape:path-effect
       effect="taper_stroke"
       id="path-effect6"
       is_visible="true"
       lpeversion="1"
       stroke_width="1.5"
       subpath="1"
       attach_start="0.2"
       end_offset="0.2"
       start_smoothing="0.5"
       end_smoothing="0.5"
       jointype="extrapolated"
       start_shape=""
       end_shape=""
       miter_limit="100" />
    <inkscape:path-effect
       effect="skeletal"
       id="path-effect5"
       is_visible="true"
       lpeversion="1"
       pattern="M 0,0 H 1"
       copytype="single_stretched"
       prop_scale="0.99"
       scale_y_rel="true"
       spacing="0.5"
       normal_offset="0"
       tang_offset="0"
       prop_units="false"
       vertical_pattern="false"
       hide_knot="false"
       fuse_tolerance="0" />
    <inkscape:path-effect
       effect="fill_between_many"
       method="bsplinespiro"
       autoreverse="false"
       close="false"
       join="false"
       linkedpaths="#path5,0,1"
       id="path-effect7" />
  </defs>
  <g
     inkscape:label="Layer 1"
     inkscape:groupmode="layer"
     id="layer1">
    <text
       xml:space="preserve"
       style="font-size:3.175px;fill:#1a7700;stroke-width:0.264583;fill-opacity:1"
       x="46.218506"
       y="168.70938"
       id="text1"><tspan
         sodipodi:role="line"
         id="tspan1"
         style="font-style:normal;font-variant:normal;font-weight:normal;font-stretch:normal;font-size:70.5556px;font-family:Papyrus;-inkscape-font-specification:'Papyrus, Normal';font-variant-ligatures:normal;font-variant-caps:normal;font-variant-numeric:normal;font-variant-east-asian:normal;stroke-width:0.264583;fill:#1a7700;fill-opacity:1"
         x="46.218506"
         y="168.70938">[</tspan></text>
    <text
       xml:space="preserve"
       style="font-style:normal;font-variant:normal;font-weight:normal;font-stretch:normal;font-size:50.8px;font-family:Papyrus;-inkscape-font-specification:'Papyrus, Normal';font-variant-ligatures:normal;font-variant-caps:normal;font-variant-numeric:normal;font-variant-east-asian:normal;fill:#7400c9;stroke-width:0.264583;fill-opacity:1"
       x="133.0527"
       y="168.71318"
       id="text2"><tspan
         sodipodi:role="line"
         id="tspan2"
         style="font-style:normal;font-variant:normal;font-weight:normal;font-stretch:normal;font-size:70.5556px;font-family:Papyrus;-inkscape-font-specification:'Papyrus, Normal';font-variant-ligatures:normal;font-variant-caps:normal;font-variant-numeric:normal;font-variant-east-asian:normal;stroke-width:0.264583;fill:#7400c9;fill-opacity:1"
         x="133.0527"
         y="168.71318">]</tspan></text>
    <text
       xml:space="preserve"
       style="font-style:normal;font-variant:normal;font-weight:normal;font-stretch:normal;font-size:50.8px;font-family:Papyrus;-inkscape-font-specification:'Papyrus, Normal';font-variant-ligatures:normal;font-variant-caps:normal;font-variant-numeric:normal;font-variant-east-asian:normal;fill:#000000;stroke-width:0.264583"
       x="91.336815"
       y="130.1705"
       id="text3"><tspan
         sodipodi:role="line"
         id="tspan3"
         style="stroke-width:0.264583"
         x="91.336815"
         y="130.1705" /></text>
    <path
       sodipodi:type="spiral"
       style="fill:none;fill-rule:evenodd;stroke:#1f8f00;stroke-width:2;stroke-linecap:round;stroke-dasharray:none;stroke-dashoffset:0;stroke-opacity:0.685279"
       id="path3"
       sodipodi:cx="95.375526"
       sodipodi:cy="125.51046"
       sodipodi:expansion="1"
       sodipodi:revolution="3.3656821"
       sodipodi:radius="37.020596"
       sodipodi:argument="-18.010876"
       sodipodi:t0="0.12032932"
       d="m 91.050367,124.44415 c -0.457985,-3.43027 2.896667,-5.93932 6.049701,-5.92877 4.895922,0.0164 8.253532,4.75571 7.940452,9.37785 -0.4301,6.34968 -6.622174,10.59195 -12.705999,9.95214 -7.801953,-0.8205 -12.941645,-8.49139 -11.963818,-16.03415 1.199707,-9.2543 10.361967,-15.29753 19.362293,-13.9755 10.706944,1.57272 17.657194,12.23335 15.987184,22.69044 -1.94194,12.15989 -14.10526,20.01931 -26.018587,17.99887 -13.613076,-2.3087 -22.383108,-15.97754 -20.010554,-29.34674 2.673757,-15.06645 17.850082,-24.748123 32.674881,-22.022234 16.51999,3.037594 27.11405,19.722824 24.03393,36.003034 -3.40052,17.97365 -21.59572,29.48065 -39.331185,26.04561 C 71.05652,156.10343 59.205884,141.8843 58.355444,125.70533"
       transform="translate(12.737447,21.746863)" />
    <path
       style="color:#000000;fill:#7000c3;fill-opacity:0.596447;fill-rule:nonzero;stroke-linecap:round;-inkscape-stroke:none;stroke:none"
       d="m 109.82321,175.5798 c -3.1537,1.04633 -6.43366,2.06436 -6.43366,2.06436 0,0 3.48171,0.49626 6.90617,-0.64072 8.84096,-2.93434 16.34117,-10.05562 18.88207,-19.18571 l -0.006,0.0196 c 3.69807,-12.01359 -1.76657,-26.38276 -13.21501,-32.05846 l 0.0209,0.0108 c -10.7271,-5.74344 -25.522213,-2.3545 -32.096319,8.08145 l 0.01464,-0.0224 c -6.376307,9.36479 -4.188439,23.51168 5.241483,30.04636 l -0.02308,-0.0166 c 8.117497,6.09367 20.942691,4.53991 26.922161,-3.83926 l -0.0182,0.0245 c 5.63057,-7.24723 4.01723,-19.10066 -4.01257,-23.95062 l 0.03,0.0191 c -6.65077,-4.46116 -17.125651,-1.97479 -20.079967,5.79627 l 0.01481,-0.0361 c -2.576447,5.8427 0.841396,13.92269 7.56799,14.77837 l -0.05622,-0.009 c 4.751467,0.97569 10.297007,-3.31159 8.963727,-8.41412 l 0.0194,0.27605 c 0.20769,-1.78996 -1.56367,-3.29276 -3.07429,-3.84917 -1.81108,-0.66707 -3.7501,-0.008 -3.02509,2.44143 a 4.7843168,4.7843168 0 0 0 0.20549,0.56234 3.6274401,3.6274401 0 0 1 0.49983,-0.0253 c 3.60174,0.0665 1.79778,5.40023 -0.94529,5.4386 a 2.1267643,2.1267643 0 0 1 -0.0829,-4.5e-4 5.4434965,5.4434965 0 0 1 -0.0875,0.0225 c -4.172024,1.0368 -7.742479,-3.32331 -7.308482,-7.30293 a 5.9766253,5.9766253 0 0 1 0.0029,-0.0259 7.7399784,7.7399784 0 0 1 9.75e-4,-0.0264 c 0.215228,-5.56787 6.381172,-9.30545 11.615342,-8.17269 a 8.6781308,8.6781308 0 0 1 0.0191,0.004 10.253816,10.253816 0 0 1 0.0194,0.003 c 7.13335,1.15812 11.20967,9.55993 9.0001,16.18849 a 11.224618,11.224618 0 0 1 -0.005,0.0157 12.642406,12.642406 0 0 1 -0.005,0.016 c -2.15478,7.56298 -10.98451,11.77591 -18.41992,9.83345 a 14.043821,14.043821 0 0 1 -0.0131,-0.003 14.794595,14.794595 0 0 1 -0.01323,-0.003 c -8.170285,-1.82197 -13.692773,-10.3326 -13.066166,-18.54186 a 16.521542,16.521542 0 0 1 0.0011,-0.015 16.854389,16.854389 0 0 1 5.36e-4,-0.015 c 0.321945,-8.91327 7.685235,-16.63492 16.38141,-18.1336 a 18.368511,18.368511 0 0 1 0.0159,-0.003 19.3445,19.3445 0 0 1 0.0158,-0.003 c 9.44463,-2.05075 19.71623,3.13058 23.90755,11.80445 a 19.90295,19.90295 0 0 1 0.006,0.012 21.991244,21.991244 0 0 1 0.006,0.0118 c 5.02039,9.51364 2.78141,22.18219 -5.30795,29.30735 a 21.715944,21.715944 0 0 1 -0.009,0.008 23.724906,23.724906 0 0 1 -0.008,0.008 c -9.24718,8.65742 -24.723513,9.24933 -34.653896,1.40607 a 23.883376,23.883376 0 0 1 -0.0088,-0.007 25.493016,25.493016 0 0 1 -0.009,-0.007 c -11.517667,-8.553 -14.674974,-25.98127 -7.381005,-38.24 a 26.255306,26.255306 0 0 1 0.0052,-0.009 27.58962,27.58962 0 0 1 0.005,-0.009 c 6.440859,-11.52372 20.669091,-17.55908 33.529117,-15.14022 a 30.000425,30.000425 0 0 1 0.008,0.002 29.194066,29.194066 0 0 1 0.008,0.001 c 13.59234,2.23702 24.65573,13.9387 26.99033,27.41146 l -0.0109,-0.14051 c -0.0224,1.34801 0.50361,5.76841 2.48365,5.40271 0.57976,-0.10708 1.05897,-0.66716 1.41812,-1.35453 a 5.4561615,5.4561615 0 0 0 0.0956,-0.19214 34.592441,34.592441 0 0 0 -0.0118,-0.20117 c -0.94966,-15.45649 -12.25162,-29.84278 -27.37759,-33.71389 l 0.0146,0.004 c -14.263545,-3.95909 -30.834598,1.73413 -39.000624,14.26586 l 0.01037,-0.0155 c -8.177861,11.89268 -7.270776,29.03198 2.124603,39.988 l -0.0079,-0.009 c 5.088654,6.13281 12.605111,10.05279 20.485631,10.86075 3.047464,0.31263 5.879184,-0.73812 5.879184,-0.73812 0,0 -2.95359,-0.46996 -5.726196,-0.75405 -7.499292,-0.76888 -14.650449,-4.50074 -19.484251,-10.3264 a 27.546608,27.546608 0 0 1 -0.0039,-0.005 28.33396,28.33396 0 0 1 -0.004,-0.005 c -8.951921,-10.4389 -9.819526,-26.82972 -2.027273,-38.16164 a 28.363953,28.363953 0 0 1 0.0053,-0.008 29.620873,29.620873 0 0 1 0.0051,-0.008 c 7.796612,-11.96483 23.685007,-17.43035 37.342714,-13.63942 a 31.668842,31.668842 0 0 1 0.007,0.002 31.320367,31.320367 0 0 1 0.007,0.002 c 14.47713,3.70507 25.34129,17.5252 26.25231,32.35271 l 0.0839,-0.39331 c -0.20019,0.38314 -0.36109,0.57412 -0.36109,0.57412 0,0 0.18917,0.0275 0.18917,0.0275 0,0 0.006,0.004 0.006,0.004 0,0 0.002,0.002 0.002,0.002 0,0 -8.5e-4,-6.4e-4 -0.003,-0.002 -0.002,-0.002 -0.005,-0.004 -0.008,-0.008 -0.004,-0.004 -0.009,-0.009 -0.0149,-0.0157 -0.007,-0.007 -0.0139,-0.016 -0.0221,-0.0264 -0.50595,-0.64262 -0.87566,-3.01916 -0.86129,-3.8837 a 2.7409,2.7409 0 0 1 0.002,-0.0661 32.960019,32.960019 0 0 0 -0.0128,-0.0744 c -2.43874,-14.07372 -13.97887,-26.29088 -28.22471,-28.63544 l 0.0168,0.003 c -13.462328,-2.53214 -28.347284,3.77268 -35.115757,15.88256 l 0.01014,-0.0176 c -7.683677,12.91371 -4.37525,31.18792 7.775795,40.21126 l -0.01772,-0.0136 c 10.513535,8.30386 26.815018,7.68095 36.608778,-1.48819 l -0.0168,0.0153 c 8.612,-7.58552 10.9839,-21.01225 5.64311,-31.13303 l 0.012,0.0237 c -4.48692,-9.28563 -15.4469,-14.81714 -25.576412,-12.61767 l 0.03177,-0.006 c -9.360941,1.61324 -17.276973,9.90355 -17.625676,19.55766 l 0.0017,-0.03 c -0.679855,8.90688 5.292541,18.12581 14.235334,20.12006 l -0.02633,-0.006 c 8.178172,2.1365 17.848902,-2.47553 20.241662,-10.87373 l -0.01,0.0317 c 2.48553,-7.45642 -2.08061,-16.82807 -10.18274,-18.14347 l 0.0385,0.007 c -6.08037,-1.3159 -13.177682,3.01454 -13.431502,9.58081 l 0.0039,-0.0523 c -0.536563,4.92012 3.927276,10.22201 9.161402,8.92127 l -0.17039,0.0221 c 4.86868,-0.0681 6.36311,-8.33836 0.95199,-8.4382 l 0.70532,0.53703 c -0.2518,-0.85082 0.0311,-0.81814 0.46215,-0.7636 1.16234,0.14707 2.83189,1.36421 2.70891,2.42414 a 0.94949307,0.94949307 0 0 1 -0.0229,0.12436 4.8631003,4.8631003 0 0 1 0.0423,0.15169 c 1.03882,3.97561 -3.46638,7.33445 -7.210723,6.56556 a 5.2228117,5.2228117 0 0 1 -0.02765,-0.006 7.4840841,7.4840841 0 0 1 -0.02857,-0.004 c -5.674496,-0.72186 -8.581915,-7.70267 -6.384798,-12.68515 a 8.1211692,8.1211692 0 0 1 0.0079,-0.0178 10.024325,10.024325 0 0 1 0.0069,-0.0183 c 2.594114,-6.82358 11.962921,-9.02733 17.842291,-5.08361 a 10.66513,10.66513 0 0 1 0.0147,0.01 12.569774,12.569774 0 0 1 0.0153,0.009 c 7.22752,4.36538 8.69614,15.19159 3.60357,21.74636 a 13.246707,13.246707 0 0 1 -0.009,0.012 15.076039,15.076039 0 0 1 -0.009,0.0125 c -5.47213,7.66823 -17.346282,9.10685 -24.800657,3.51098 a 15.740994,15.740994 0 0 1 -0.01136,-0.009 17.432999,17.432999 0 0 1 -0.01171,-0.008 c -8.729336,-6.0492 -10.7757,-19.27503 -4.855971,-27.96924 a 18.166058,18.166058 0 0 1 0.0075,-0.011 19.724451,19.724451 0 0 1 0.0071,-0.0113 c 6.138364,-9.74423 20.071153,-12.93839 30.119133,-7.55857 a 20.74612,20.74612 0 0 1 0.0104,0.006 21.884841,21.884841 0 0 1 0.0105,0.005 c 10.75948,5.33414 15.93802,18.93443 12.44765,30.27324 a 23.588092,23.588092 0 0 1 -0.003,0.01 23.943545,23.943545 0 0 1 -0.003,0.01 c -2.39993,8.62351 -9.48755,15.36897 -17.9095,18.16423 z"
       id="path5"
       inkscape:path-effect="#path-effect6"
       inkscape:original-d="m 103.38955,177.64416 c 11.35294,-0.87212 21.97768,-8.93151 25.0657,-20.02751 3.59422,-11.6762 -1.72737,-25.66093 -12.83133,-31.16585 -10.38754,-5.56163 -24.751491,-2.27008 -31.107726,7.82001 -6.148018,9.0295 -4.030902,22.71586 5.048727,29.0078 7.785936,5.84477 20.135609,4.34858 25.861409,-3.67512 5.36157,-6.901 3.82059,-18.24082 -3.80807,-22.84849 -6.26507,-4.20244 -16.186914,-1.85738 -18.961129,5.43994 -2.386782,5.41259 0.775849,12.94299 6.976394,13.73176 4.247905,0.87229 9.273275,-2.95077 8.087225,-7.48984 0.30596,-2.63697 -5.66359,-5.00885 -4.63522,-1.53414 4.50939,0.0832 2.86071,6.88511 -0.94864,6.9384 -4.703075,1.16877 -8.720222,-3.66223 -8.234942,-8.1121 0.234524,-6.06707 6.866152,-10.10108 12.523422,-8.87675 7.61774,1.23676 11.93897,10.12349 9.59142,17.16598 -2.27377,7.98059 -11.524,12.39307 -19.330791,10.35359 -8.556539,-1.90811 -14.303981,-10.77289 -13.65075,-19.33096 0.335324,-9.28369 7.974985,-17.28967 17.003541,-18.84563 9.78707,-2.12511 20.40286,3.23131 24.74198,12.21106 5.18059,9.81721 2.87515,22.86485 -5.47553,30.22019 -9.52047,8.91328 -25.409378,9.52069 -35.631337,1.44713 -11.834356,-8.78817 -15.067223,-26.63941 -7.5784,-39.22563 6.604666,-11.8168 21.16126,-17.98689 34.322437,-15.51139 13.91909,2.29079 25.22085,14.25021 27.60752,28.02345 -0.0251,1.5103 0.85034,6.82102 2.48714,3.6884 -0.93034,-15.142 -12.0134,-29.24521 -26.81495,-33.0333 -13.960626,-3.87501 -30.19035,1.70436 -38.171669,13.95264 -7.985057,11.6123 -7.097712,28.37736 2.075938,39.07482 6.201535,7.47404 16.110225,11.58354 25.787631,10.60154 z"
       inkscape:linked-fill="path7" />
  </g>
</svg>
